<svg xmlns="http://www.w3.org/2000/svg" fill="none" height="20" viewBox="0 0 33 32" width="20"><path d="M9.944 2.667c-.917 0-1.667.75-1.667 1.667v23.333c0 .917.75 1.667 1.667 1.667h16.667c.916 0 1.666-.75 1.666-1.667V9.334l-6.666-6.667z" fill="#E2E5E7"></path><path d="M23.28 9.334h5l-6.667-6.667v5c0 .917.75 1.667 1.667 1.667" fill="#B0B7BD"></path><path d="m28.277 14.334-5-5h5z" fill="#CAD1D8"></path><path d="M24.945 24.334a.836.836 0 0 1-.833.833H5.779a.836.836 0 0 1-.834-.833V16c0-.458.375-.833.834-.833h18.333c.458 0 .833.375.833.833z" fill="#F15642"></path><path d="M8.578 18.456c0-.22.173-.46.453-.46h1.539c.867 0 1.646.58 1.646 1.692 0 1.053-.78 1.64-1.646 1.64H9.457v.88c0 .293-.186.459-.426.459a.45.45 0 0 1-.453-.46zm.88.38v1.66h1.112c.447 0 .8-.395.8-.808 0-.466-.353-.853-.8-.853zm4.065 3.831c-.22 0-.46-.12-.46-.413v-3.785c0-.24.24-.413.46-.413h1.525c3.045 0 2.979 4.61.06 4.61zm.42-3.798v2.985h1.105c1.8 0 1.88-2.985 0-2.985zm5.163.054v1.06h1.7c.24 0 .48.24.48.472 0 .22-.24.4-.48.4h-1.7v1.399c0 .233-.166.412-.4.412-.293 0-.472-.179-.472-.412v-3.785c0-.24.18-.413.473-.413h2.339c.293 0 .467.174.467.413a.46.46 0 0 1-.467.453z" fill="#fff"></path><path d="M24.11 25.167H8.278v.834h15.834a.836.836 0 0 0 .833-.834v-.833a.836.836 0 0 1-.833.833" fill="#CAD1D8"></path></svg>