<svg width="20" height="20" viewBox="0 0 15 18" fill="none" xmlns="http://www.w3.org/2000/svg"><path d="M0 16.4583V1.45833C0 1.07156 0.153756 0.700736 0.427246 0.427246C0.700737 0.153756 1.07156 0 1.45833 0H9.79167C9.95743 0 10.1164 0.0658952 10.2336 0.183105L14.4002 4.34977C14.5174 4.46698 14.5833 4.62591 14.5833 4.79167V16.4583C14.5833 16.8451 14.4296 17.2159 14.1561 17.4894C13.8826 17.7629 13.5118 17.9167 13.125 17.9167H1.45833C1.07156 17.9167 0.700737 17.7629 0.427246 17.4894C0.153756 17.2159 0 16.8451 0 16.4583ZM1.25 16.4583C1.25 16.5136 1.27197 16.5666 1.31104 16.6056C1.3501 16.6447 1.40308 16.6667 1.45833 16.6667H13.125C13.1803 16.6667 13.2332 16.6447 13.2723 16.6056C13.3114 16.5666 13.3333 16.5136 13.3333 16.4583V5.05046L9.53288 1.25H1.45833C1.40308 1.25 1.35011 1.27197 1.31104 1.31104C1.27196 1.35011 1.25 1.40308 1.25 1.45833V16.4583Z" fill="black"></path><path d="M6.67122 13.1243V7.08594H4.79297C4.44779 7.08594 4.16797 6.80612 4.16797 6.46094C4.16797 6.11576 4.44779 5.83594 4.79297 5.83594H9.79297C10.1381 5.83594 10.418 6.11576 10.418 6.46094C10.418 6.80612 10.1381 7.08594 9.79297 7.08594H7.92122V13.1243C7.92118 13.4695 7.64138 13.7493 7.29622 13.7493C6.95111 13.7493 6.67127 13.4695 6.67122 13.1243Z" fill="black"></path></svg>