<svg width="20" height="20" viewBox="0 0 32 32" fill="none" xmlns="http://www.w3.org/2000/svg"><g clip-path="url(#clip0_945_10006)"><path d="M28.8488 3H10.4298C9.79411 3 9.27881 3.5153 9.27881 4.15096V9.27907L19.9532 12.4186L29.9997 9.27907V4.15096C29.9997 3.5153 29.4844 3 28.8488 3Z" fill="#41A5EE"></path><path d="M29.9997 9.27832H9.27881V15.5574L19.9532 17.4411L29.9997 15.5574V9.27832Z" fill="#2B7CD3"></path><path d="M9.27881 15.5581V21.8372L19.3253 23.093L29.9997 21.8372V15.5581H9.27881Z" fill="#185ABD"></path><path d="M10.4298 28.116H28.8488C29.4845 28.116 29.9998 27.6007 29.9998 26.965V21.8369H9.27881V26.965C9.27881 27.6007 9.79411 28.116 10.4298 28.116Z" fill="#103F91"></path><path opacity="0.1" d="M16.9185 8.02295H9.27881V23.7206H16.9185C17.5533 23.7186 18.0674 23.2045 18.0695 22.5697V9.17391C18.0674 8.53911 17.5533 8.02502 16.9185 8.02295Z" fill="black"></path><path opacity="0.2" d="M16.2906 8.65088H9.27881V24.3486H16.2906C16.9254 24.3465 17.4395 23.8324 17.4416 23.1976V9.80184C17.4395 9.16704 16.9254 8.65295 16.2906 8.65088Z" fill="black"></path><path opacity="0.2" d="M16.2906 8.65088H9.27881V23.0927H16.2906C16.9254 23.0907 17.4395 22.5766 17.4416 21.9418V9.80184C17.4395 9.16704 16.9254 8.65295 16.2906 8.65088Z" fill="black"></path><path opacity="0.2" d="M15.6627 8.65088H9.27881V23.0927H15.6627C16.2975 23.0907 16.8116 22.5766 16.8137 21.9418V9.80184C16.8116 9.16704 16.2975 8.65295 15.6627 8.65088Z" fill="black"></path><path d="M4.15096 8.65088H15.663C16.2987 8.65088 16.814 9.16618 16.814 9.80184V21.3139C16.814 21.9495 16.2987 22.4648 15.663 22.4648H4.15096C3.5153 22.4648 3 21.9495 3 21.3139V9.80184C3 9.16618 3.5153 8.65088 4.15096 8.65088Z" fill="url(#paint0_linear_945_10006)"></path><path d="M7.7228 17.4787C7.74541 17.6564 7.76048 17.8108 7.76738 17.9433H7.79375C7.80379 17.8177 7.82472 17.6664 7.85654 17.4893C7.88836 17.3123 7.91703 17.1626 7.94256 17.0404L9.15317 11.8175H10.7185L11.9744 16.9619C12.0473 17.2818 12.0996 17.606 12.1307 17.9326H12.1514C12.1748 17.6162 12.2185 17.3016 12.282 16.9908L13.2835 11.8149H14.7083L12.9489 19.2996H11.2843L10.0913 14.3429C10.0567 14.2004 10.0172 14.0139 9.97385 13.7847C9.93053 13.5555 9.90353 13.3878 9.89285 13.2823H9.87213C9.85832 13.4042 9.83131 13.585 9.79112 13.8249C9.75094 14.0647 9.7187 14.2422 9.69442 14.3573L8.57297 19.2983H6.88013L5.11133 11.8174H6.56179L7.65246 17.051C7.67696 17.1584 7.7002 17.3016 7.7228 17.4787Z" fill="white"></path></g><defs><linearGradient id="paint0_linear_945_10006" x1="5.39976" y1="7.75155" x2="14.4142" y2="23.3642" gradientUnits="userSpaceOnUse"><stop stop-color="#2368C4"></stop><stop offset="0.5" stop-color="#1A5DBE"></stop><stop offset="1" stop-color="#1146AC"></stop></linearGradient><clipPath id="clip0_945_10006"><rect width="27" height="25.1163" fill="white" transform="translate(3 3)"></rect></clipPath></defs></svg>